<?xml version="1.0" encoding="UTF-8"?><svg xmlns="http://www.w3.org/2000/svg" viewBox="0 0 447.25 279.75"><defs><style>.cls-1{letter-spacing:-.02em;}.cls-2{letter-spacing:0em;}.cls-3{font-family:MuseoSans-700, 'Museo Sans';font-size:16px;}.cls-4{letter-spacing:0em;}.cls-5{fill:#e6e7e8;}.cls-6{fill:#fff186;}.cls-7{fill:#fffffe;}.cls-8{fill:#fff;}.cls-9{fill:#fff6af;}.cls-10{fill:#ffe836;}.cls-11{fill:#ffda6a;}.cls-12{fill:#ffc107;}.cls-13{fill:#69f0ae;}.cls-14{fill:#aed467;}.cls-15{fill:#212121;}.cls-16{fill:#414042;}.cls-17{fill:#4c5159;}.cls-18{letter-spacing:-.02em;}.cls-19{letter-spacing:-.05em;}.cls-20{letter-spacing:2.76em;}.cls-21{letter-spacing:-.01em;}.cls-22{letter-spacing:0em;}.cls-23{letter-spacing:0em;}.cls-24{letter-spacing:0em;}.cls-25{letter-spacing:-.02em;}.cls-26{letter-spacing:0em;}.cls-27{opacity:.16;}.cls-28{font-family:MuseoSansRounded-100, 'Museo Sans Rounded';font-size:12px;}.cls-29{opacity:.2;}.cls-30{opacity:.3;}.cls-31{opacity:.28;}.cls-32{letter-spacing:0em;}</style></defs><g id="Graphics"><g id="Layer_6"><g class="cls-27"><path class="cls-8" d="m344.33,212.86c0-68.96-55.9-124.86-124.86-124.86s-124.86,55.9-124.86,124.86h249.73Z"/></g><g class="cls-27"><circle class="cls-8" cx="398.95" cy="147.25" r="9.79"/></g><g class="cls-27"><circle class="cls-8" cx="257.01" cy="25.14" r="15.08" transform="translate(9.66 99.33) rotate(-22.28)"/></g><g class="cls-27"><path class="cls-8" d="m119.29,61.99c0,3.57-2.89,6.46-6.46,6.46s-6.46-2.89-6.46-6.46,2.89-6.46,6.46-6.46,6.46,2.89,6.46,6.46Z"/></g><g class="cls-27"><circle class="cls-8" cx="316.3" cy="50.15" r="6.46"/></g><g class="cls-27"><path class="cls-8" d="m180.3,6.46c0,3.57-2.89,6.46-6.46,6.46s-6.46-2.89-6.46-6.46,2.89-6.46,6.46-6.46,6.46,2.89,6.46,6.46Z"/></g><g class="cls-27"><circle class="cls-8" cx="395.41" cy="170.93" r="2.65"/></g><g class="cls-27"><path class="cls-8" d="m315.24,4.47c0,1.1-.89,1.99-1.99,1.99s-1.99-.89-1.99-1.99.89-1.99,1.99-1.99,1.99.89,1.99,1.99Z"/></g><g class="cls-27"><circle class="cls-8" cx="115.39" cy="14.39" r="2.59"/></g><g class="cls-27"><circle class="cls-8" cx="6.81" cy="72.25" r="3.45"/></g><g class="cls-27"><path class="cls-8" d="m425.15,97.5c0,1.9-1.54,3.45-3.45,3.45s-3.45-1.54-3.45-3.45,1.54-3.45,3.45-3.45,3.45,1.54,3.45,3.45Z"/></g><g class="cls-27"><circle class="cls-8" cx="62.18" cy="58.31" r="14.61" transform="translate(-5.4 110.25) rotate(-80.7)"/></g><g class="cls-27"><circle class="cls-8" cx="19.16" cy="164.87" r="3.45"/></g><g class="cls-27"><circle class="cls-8" cx="389.16" cy="61.99" r="14.17"/></g><g class="cls-27"><circle class="cls-8" cx="19.16" cy="126" r="13.92"/></g><g class="cls-27"><path class="cls-8" d="m391.36,212.86c0-24.87-5.29-48.5-14.79-69.85,3.43-7.11,5.36-15.09,5.36-23.52,0-29.92-24.25-54.17-54.17-54.17-5.61,0-11.01.85-16.1,2.43-26.64-16.96-58.26-26.79-92.18-26.79-4.23,0-8.41.15-12.56.45-7.41-5.59-16.63-8.9-26.63-8.9-18.88,0-34.99,11.83-41.36,28.47-13.04,6.93-25.08,15.48-35.85,25.4-3.5-.79-7.14-1.23-10.88-1.23-27.1,0-49.07,21.97-49.07,49.07,0,11.81,4.17,22.64,11.12,31.11-4.33,15.09-6.66,31.03-6.66,47.51h343.78Z"/></g></g><g id="Layer_5"><g><path class="cls-13" d="m62.06,159.19c0-.13.1-.23.23-.23h43.09c.13,0,.23.1.23.23v53.99c0,.13-.1.23-.23.23h-42.94c-.21,0-.38-.17-.38-.38v-53.84Z"/><path class="cls-15" d="m105.38,214.41h-13.7v-2h12.93v-52.45h-41.55v17.84h-2v-18.61c0-.68.55-1.23,1.23-1.23h43.09c.68,0,1.23.55,1.23,1.23v53.99c0,.68-.55,1.23-1.23,1.23Z"/><g class="cls-30"><path class="cls-16" d="m88.6,178.26h-26.54v34.77c0,.21.17.38.38.38h28.17l-1.51-6.95v-27.71c0-.28-.22-.5-.5-.5Z"/></g><path class="cls-10" d="m89.01,213.41h-52.96c-.19,0-.33-.17-.29-.36l1.55-7.1v-26.31c0-.26.21-.47.47-.47h49.5c.26,0,.47.21.47.47v26.31l1.55,7.1c.04.18-.1.36-.29.36Z"/><path class="cls-6" d="m36.05,213.41h52.96c.19,0,.33-.17.29-.36l-1.55-7.1v-.55h-50.45v.55l-1.55,7.1c-.04.18.1.36.29.36Z"/><rect class="cls-15" x="37.37" y="204.14" width="24.68" height="2"/><rect class="cls-15" x="65.3" y="204.14" width="2.84" height="2"/><path class="cls-15" d="m97.58,169.49h-2v-12.2c0-6.48-5.27-11.74-11.74-11.74s-11.74,5.27-11.74,11.74v12.2h-2v-12.2c0-7.58,6.17-13.74,13.74-13.74s13.74,6.17,13.74,13.74v12.2Z"/><path class="cls-15" d="m63,199.99c-7.6,0-13.78-6.18-13.78-13.78v-3.62h2v3.62c0,6.5,5.29,11.78,11.78,11.78s11.78-5.29,11.78-11.78v-3.62h2v3.62c0,7.6-6.18,13.78-13.78,13.78Z"/></g><g><rect class="cls-10" x="103.93" y="134.69" width="66.57" height="78.72" rx=".18" ry=".18"/><rect class="cls-6" x="150.97" y="134.69" width="19.54" height="78.72" rx=".18" ry=".18"/><path class="cls-15" d="m170.32,214.41h-66.21c-.65,0-1.18-.53-1.18-1.18v-78.36c0-.65.53-1.18,1.18-1.18h66.21c.65,0,1.18.53,1.18,1.18v78.36c0,.65-.53,1.18-1.18,1.18Zm-65.39-2h64.57v-76.72h-64.57v76.72Z"/><rect class="cls-15" x="149.37" y="134.26" width="2" height="79.15"/><circle class="cls-8" cx="127.16" cy="165.72" r="16.67"/><g><path class="cls-13" d="m123.1,155.12s6.28,4.76,6.24,10.58c-.04,5.82-6.4,10.49-6.4,10.49,0,0-6.28-4.76-6.24-10.58.04-5.82,6.4-10.49,6.4-10.49Z"/><path class="cls-13" d="m137.54,161s1.29,7.78-2.75,11.97c-4.03,4.19-11.86,3.21-11.86,3.21,0,0-1.29-7.78,2.75-11.97,4.03-4.19,11.86-3.21,11.86-3.21Z"/><g><path class="cls-15" d="m125.21,177.33c-1.47,0-2.48-.14-2.6-.16l-.74-.11-.11-.74c-.05-.34-1.15-8.35,3.26-12.77,4.42-4.42,12.43-3.32,12.77-3.26l.74.11.11.74c.05.34,1.15,8.35-3.26,12.77-2.9,2.9-7.36,3.42-10.17,3.42Zm-1.54-2.06c1.98.15,7.31.22,10.3-2.77,2.99-2.99,2.92-8.31,2.77-10.3-1.98-.14-7.31-.21-10.3,2.77-3,3-2.92,8.32-2.77,10.29Z"/><path class="cls-15" d="m119.22,174.16c-1.7-1.97-3.73-5.06-3.71-8.56.04-6.25,6.52-11.09,6.8-11.29l.6-.44.6.45c.12.09,2.85,2.18,4.77,5.33l-1.71,1.04c-1.22-1.99-2.82-3.53-3.68-4.28-1.51,1.29-5.35,4.98-5.38,9.21-.02,2.88,1.74,5.52,3.22,7.24l-1.51,1.31Z"/></g></g><rect class="cls-15" x="118.11" y="142.07" width="18.63" height="2"/><path class="cls-15" d="m165.17,150.12h-8.88v-8.88h8.88v8.88Zm-6.88-2h4.88v-4.88h-4.88v4.88Z"/></g><g><path class="cls-14" d="m299.42,159.27c-2.05,1.16-4.81.99-5.72-.62-.91-1.61.38-4.05,2.43-5.21,2.05-1.16,6.43.21,6.43.21,0,0-1.09,4.46-3.14,5.62Z"/><path class="cls-8" d="m299.42,159.27c-2.05,1.16-4.81.99-5.72-.62-.91-1.61.38-4.05,2.43-5.21,2.05-1.16,6.43.21,6.43.21,0,0-1.09,4.46-3.14,5.62Z"/><path class="cls-15" d="m294.33,166.38s-.07,0-.11,0c-.55-.06-.95-.55-.89-1.1,0-.05.56-5.45-1.51-7.98-.6-.73-1.35-1.12-2.3-1.21-.55-.05-.96-.53-.91-1.08.05-.55.55-.96,1.08-.91,1.49.13,2.73.78,3.67,1.93,2.61,3.18,1.98,9.21,1.95,9.46-.06.51-.49.89-.99.89Z"/><path class="cls-10" d="m305.92,170.39c0,3.4-3.46,10.53-5.75,12.7-2.13,2.02-4.38,0-5.86,0-1.73,0-3.62,2.02-5.75,0-2.29-2.17-6.43-9.3-6.43-12.7,0-3.08,1.17-5.89,3.1-8,2.18-2.39,5.31.17,8.8.17s6.61-2.57,8.78-.19c1.93,2.12,3.11,4.93,3.11,8.02Z"/><path class="cls-15" d="m298.05,184.98c-.96,0-1.84-.32-2.54-.57-.46-.16-.93-.33-1.2-.33-.38,0-.87.18-1.38.37-1.26.46-3.16,1.16-5.06-.64-2.28-2.15-6.74-9.57-6.74-13.43,0-3.22,1.19-6.3,3.36-8.68,1.8-1.98,4.13-1.34,6.19-.77,1.09.3,2.23.61,3.35.61s2.26-.31,3.35-.62c2.05-.57,4.37-1.21,6.17.75,2.18,2.38,3.37,5.47,3.37,8.7,0,3.71-3.56,11.05-6.06,13.42-.94.89-1.91,1.17-2.81,1.17Zm-3.74-2.9c.62,0,1.23.22,1.88.45,1.4.5,2.31.76,3.3-.17,2.1-1.99,5.43-8.87,5.43-11.97,0-2.73-1.01-5.34-2.85-7.35-.93-1.02-2.06-.76-4.16-.18-1.17.32-2.49.69-3.89.69s-2.72-.36-3.88-.69c-2.1-.58-3.24-.83-4.18.19-1.83,2.01-2.83,4.61-2.83,7.33,0,3.07,3.92,9.9,6.11,11.97.95.9,1.68.69,2.99.21.66-.24,1.34-.49,2.07-.49Z"/><path class="cls-15" d="m299.64,180.09c-.18,0-.36-.05-.52-.15-.47-.29-.62-.9-.33-1.38,1.24-2.02,2.4-4.58,3.04-6.67.16-.53.72-.83,1.25-.67.53.16.83.72.67,1.25-.69,2.28-1.91,4.94-3.25,7.13-.19.31-.52.48-.85.48Z"/><path class="cls-15" d="m296.58,161.02c-.18,0-.37,0-.55-.02-1.45-.13-2.62-.81-3.21-1.85-1.28-2.26.42-5.23,2.81-6.57,2.36-1.34,6.73-.02,7.22.13l.9.28-.22.91c-.12.5-1.26,4.92-3.62,6.25h0c-1.01.57-2.19.88-3.32.88Zm1.8-7.04c-.71,0-1.34.09-1.77.33-1.61.91-2.63,2.82-2.05,3.85.26.46.86.77,1.65.84.89.08,1.88-.14,2.7-.61h0c1-.56,1.89-2.5,2.39-4.04-.9-.21-1.98-.38-2.93-.38Z"/></g><g><path class="cls-15" d="m316.75,159.71c-.39,0-.76-.23-.92-.62l-3.18-7.63c-.21-.51.03-1.09.54-1.31.51-.21,1.09.03,1.31.54l3.18,7.63c.21.51-.03,1.09-.54,1.31-.13.05-.26.08-.38.08Z"/><path class="cls-10" d="m315.8,155.41c3.46.94,6.77,10.32-.5,19.63-7.27,9.31-21.1,14.35-21.73,11.07,0,0-.43-1.13-.43-1.53.04-2.61,9.37-6.23,15.39-13.93,7.27-9.31,4.22-16.08,7.27-15.25Z"/><path class="cls-15" d="m295.48,188.11c-.41,0-.79-.04-1.11-.12-1.24-.3-1.63-1.09-1.76-1.59-.19-.5-.48-1.34-.47-1.84.03-1.71,2.09-3.17,5.21-5.38,3.23-2.28,7.25-5.13,10.38-9.14,3.99-5.11,4.76-9.46,5.21-12.07.3-1.68.49-2.79,1.38-3.35.47-.3,1.06-.36,1.73-.18h0c1.63.44,3.08,2.17,3.89,4.61.64,1.92,2.24,8.78-3.87,16.61-5.86,7.5-15.9,12.46-20.61,12.46Zm19.91-31.77c-.17.29-.33,1.22-.47,1.98-.49,2.78-1.31,7.45-5.61,12.95-3.31,4.25-7.64,7.31-10.8,9.54-1.94,1.37-4.36,3.08-4.37,3.78.01.13.18.7.36,1.16l.05.17s.19.21,1.01.19c4.05-.06,13.45-4.64,18.95-11.69,5.5-7.04,4.1-13.07,3.55-14.74-.71-2.12-1.8-3.11-2.52-3.31h0c-.06-.02-.11-.03-.14-.03Z"/><path class="cls-10" d="m315.8,155.41c3.56.42,8.23,9.2,2.43,19.49-5.8,10.29-18.73,17.33-19.84,14.19,0,0-.6-1.05-.65-1.45-.35-2.58,8.34-7.55,13.14-16.06,5.8-10.29,1.78-16.53,4.92-16.16Z"/><path class="cls-15" d="m299.78,190.83c-.11,0-.22,0-.33-.01-1.27-.11-1.78-.83-1.97-1.31-.26-.47-.67-1.26-.74-1.75-.23-1.7,1.6-3.45,4.36-6.1,2.85-2.74,6.4-6.15,8.91-10.58,3.18-5.65,3.29-10.07,3.36-12.71.04-1.71.07-2.83.86-3.52.43-.37.99-.52,1.68-.43h0c1.68.2,3.37,1.68,4.54,3.97.91,1.8,3.52,8.35-1.35,17-4.96,8.79-15,15.45-19.32,15.45Zm15.75-34.44c-.12.31-.15,1.26-.17,2.03-.07,2.83-.19,7.56-3.62,13.64-2.65,4.69-6.47,8.36-9.26,11.04-1.72,1.65-3.85,3.7-3.76,4.39.03.13.29.66.53,1.09l.07.16s.23.17,1.02.04c4-.66,12.61-6.6,17-14.38,4.39-7.78,2.11-13.53,1.31-15.11-1.01-2-2.24-2.81-2.99-2.89-.06,0-.11,0-.15,0Z"/><path class="cls-15" d="m305.54,186.37c-.31,0-.62-.15-.82-.42-.32-.45-.21-1.08.24-1.39,4.26-3,8-7.03,10.26-11.04.27-.48.88-.65,1.36-.38.48.27.65.88.38,1.36-2.41,4.27-6.36,8.53-10.85,11.7-.17.12-.38.18-.58.18Z"/><path class="cls-15" d="m317.22,172.74c-.13,0-.27-.03-.4-.08-.51-.22-.74-.81-.52-1.31.96-2.22,1.47-4.45,1.53-6.64.02-.55.48-.96,1.03-.97.55.02.99.48.97,1.03-.07,2.45-.64,4.93-1.7,7.38-.16.38-.53.6-.92.6Z"/></g><g class="cls-30"><path class="cls-17" d="m170.32,133.69h-9.62c.89,1.8,2.38,3.24,4.23,4.04v2.07h-1v63.26h1s-3.56,0-3.56,0h-4.44v10.35h14.54c0-.06.04-.12.04-.18v-78.36c0-.65-.53-1.18-1.18-1.18Z"/></g><g><polygon class="cls-8" points="165.8 82.22 165.8 87.6 171.84 92.78 171.84 106.28 278.25 106.28 278.25 92.78 284.29 87.6 284.29 82.22 165.8 82.22"/><rect class="cls-8" x="168.43" y="121.09" width="113.06" height="87.15"/><path class="cls-10" d="m164.33,116.51v13.45c0,4.14,3.35,7.49,7.49,7.49s7.49-3.35,7.49-7.49v-13.45h-14.98Z"/><path class="cls-8" d="m179.31,116.51v13.45c0,4.14,3.35,7.49,7.49,7.49s7.49-3.35,7.49-7.49v-13.45h-14.98Z"/><path class="cls-10" d="m194.28,116.51v13.45c0,4.14,3.35,7.49,7.49,7.49s7.49-3.35,7.49-7.49v-13.45h-14.98Z"/><path class="cls-8" d="m209.26,116.51v13.45c0,4.14,3.35,7.49,7.49,7.49s7.49-3.35,7.49-7.49v-13.45h-14.98Z"/><path class="cls-10" d="m224.23,116.51v13.45c0,4.14,3.35,7.49,7.49,7.49s7.49-3.35,7.49-7.49v-13.45h-14.98Z"/><path class="cls-8" d="m239.21,116.51v13.45c0,4.14,3.35,7.49,7.49,7.49s7.49-3.35,7.49-7.49v-13.45h-14.98Z"/><path class="cls-10" d="m254.18,116.51v13.45c0,4.14,3.35,7.49,7.49,7.49s7.49-3.35,7.49-7.49v-13.45h-14.98Z"/><path class="cls-8" d="m269.16,116.51v13.45c0,4.14,3.35,7.49,7.49,7.49s7.49-3.35,7.49-7.49v-13.45h-14.98Z"/><g><path class="cls-15" d="m171.82,138.45c-4.68,0-8.49-3.81-8.49-8.49v-10.64h2v10.64c0,3.58,2.91,6.49,6.49,6.49s6.49-2.91,6.49-6.49v-10.64h2v10.64c0,4.68-3.81,8.49-8.49,8.49Z"/><path class="cls-15" d="m186.79,138.45c-4.68,0-8.49-3.81-8.49-8.49v-10.64h2v10.64c0,3.58,2.91,6.49,6.49,6.49s6.49-2.91,6.49-6.49v-10.64h2v10.64c0,4.68-3.81,8.49-8.49,8.49Z"/><path class="cls-15" d="m201.77,138.45c-4.68,0-8.49-3.81-8.49-8.49v-10.64h2v10.64c0,3.58,2.91,6.49,6.49,6.49s6.49-2.91,6.49-6.49v-10.64h2v10.64c0,4.68-3.81,8.49-8.49,8.49Z"/><path class="cls-15" d="m216.74,138.45c-4.68,0-8.49-3.81-8.49-8.49v-10.64h2v10.64c0,3.58,2.91,6.49,6.49,6.49s6.49-2.91,6.49-6.49v-10.64h2v10.64c0,4.68-3.81,8.49-8.49,8.49Z"/><path class="cls-15" d="m231.72,138.45c-4.68,0-8.49-3.81-8.49-8.49v-10.64h2v10.64c0,3.58,2.91,6.49,6.49,6.49s6.49-2.91,6.49-6.49v-10.64h2v10.64c0,4.68-3.81,8.49-8.49,8.49Z"/><path class="cls-15" d="m246.69,138.45c-4.68,0-8.49-3.81-8.49-8.49v-10.64h2v10.64c0,3.58,2.91,6.49,6.49,6.49s6.49-2.91,6.49-6.49v-10.64h2v10.64c0,4.68-3.81,8.49-8.49,8.49Z"/><path class="cls-15" d="m262.1,138.45c-4.68,0-8.49-3.81-8.49-8.49v-10.64h2v10.64c0,3.58,2.91,6.49,6.49,6.49s6.49-2.91,6.49-6.49v-10.64h2v10.64c0,4.68-3.81,8.49-8.49,8.49Z"/><path class="cls-15" d="m276.78,138.45c-4.68,0-8.49-3.81-8.49-8.49v-10.64h2v10.64c0,3.58,2.91,6.49,6.49,6.49s6.49-2.91,6.49-6.49v-10.64h2v10.64c0,4.68-3.81,8.49-8.49,8.49Z"/></g><rect class="cls-15" x="167.43" y="139.8" width="2" height="63.26"/><rect class="cls-15" x="280.49" y="139.8" width="2" height="63.26"/><rect class="cls-10" x="180.13" y="148.42" width="48.07" height="25.99"/><g><polygon class="cls-6" points="193.33 148.42 180.13 161.62 180.13 174.41 187.65 174.41 213.64 148.42 193.33 148.42"/><polygon class="cls-6" points="223.51 148.42 216.73 148.42 190.74 174.41 197.51 174.41 223.51 148.42"/></g><rect class="cls-10" x="243.8" y="148.42" width="25.67" height="44.26"/><g><polygon class="cls-6" points="243.8 159.55 243.8 176.79 269.47 151.11 269.47 148.42 254.93 148.42 243.8 159.55"/><polygon class="cls-6" points="269.47 162.29 269.47 155.69 243.8 181.37 243.8 187.97 269.47 162.29"/></g><g class="cls-30"><rect class="cls-16" x="168.43" y="198.49" width="113.06" height="9.75"/></g><path class="cls-13" d="m290.97,203.07h-130.29c-.14,0-.25.11-.25.25v10.09h130.8v-10.09c0-.14-.11-.25-.25-.25Z"/><rect class="cls-15" x="249.66" y="169.7" width="5.2" height="2"/><g class="cls-30"><rect class="cls-16" x="171.84" y="98.88" width="106.41" height="7.4"/></g><rect class="cls-13" x="158.87" y="103.46" width="132.36" height="14.07" rx=".14" ry=".14"/><polygon class="cls-15" points="279.25 101.69 277.25 101.69 277.25 92.32 283.29 87.14 283.29 83.22 166.8 83.22 166.8 87.14 172.84 92.32 172.84 101.69 170.84 101.69 170.84 93.24 164.8 88.06 164.8 81.22 285.29 81.22 285.29 88.06 279.25 93.24 279.25 101.69"/><rect class="cls-15" x="177.83" y="90.65" width="44.23" height="2"/></g><g><path class="cls-10" d="m434.46,188.89h-43.02c-.08,0-.14.06-.14.14v2.2c2.21,0,3.99,1.79,3.99,3.99s-1.79,3.99-3.99,3.99v13.82c0,.08.06.14.14.14h21.98c0-2.34,1.9-4.23,4.23-4.23s4.23,1.9,4.23,4.23h12.58c.08,0,.14-.06.14-.14v-24.01c0-.08-.06-.14-.14-.14Z"/><path class="cls-6" d="m430.04,178.16c-.03-.11-.15-.17-.26-.14l-38.14,10.91c-.05.02-.04.1.01.1l34.18-.14h7.63l-3.43-10.72Z"/><path class="cls-15" d="m390.79,190.04l-.31-1.77.88-.3,38.14-10.91c.63-.18,1.28.17,1.48.8l3.84,12.03h-29.5v-2h26.76l-2.78-8.69-30.53,8.73,3.03-.04.03,2-11.05.15Z"/><path class="cls-6" d="m401.68,205.44c0,1.56-1.26,2.82-2.82,2.82s-2.82-1.26-2.82-2.82,1.26-2.82,2.82-2.82,2.82,1.26,2.82,2.82Z"/><path class="cls-6" d="m415.97,198.74c0,1.94-1.58,3.52-3.52,3.52s-3.52-1.58-3.52-3.52,1.58-3.52,3.52-3.52,3.52,1.58,3.52,3.52Z"/><path class="cls-6" d="m430.15,202.88c0,1.41-1.14,2.55-2.55,2.55s-2.55-1.14-2.55-2.55,1.14-2.55,2.55-2.55,2.55,1.14,2.55,2.55Z"/><path class="cls-15" d="m398.86,209.25c-2.1,0-3.82-1.71-3.82-3.82s1.71-3.82,3.82-3.82,3.82,1.71,3.82,3.82-1.71,3.82-3.82,3.82Zm0-5.63c-1,0-1.82.81-1.82,1.82s.82,1.82,1.82,1.82,1.82-.82,1.82-1.82-.82-1.82-1.82-1.82Z"/><path class="cls-15" d="m412.45,203.26c-2.49,0-4.52-2.03-4.52-4.52s2.03-4.52,4.52-4.52,4.52,2.03,4.52,4.52-2.03,4.52-4.52,4.52Zm0-7.04c-1.39,0-2.52,1.13-2.52,2.52s1.13,2.52,2.52,2.52,2.52-1.13,2.52-2.52-1.13-2.52-2.52-2.52Z"/><path class="cls-15" d="m427.6,206.44c-1.96,0-3.55-1.59-3.55-3.55s1.59-3.55,3.55-3.55,3.55,1.59,3.55,3.55-1.59,3.55-3.55,3.55Zm0-5.11c-.86,0-1.55.7-1.55,1.55s.7,1.55,1.55,1.55,1.55-.7,1.55-1.55-.7-1.55-1.55-1.55Z"/><rect class="cls-15" x="427.84" y="177.47" width="2" height="12.1" transform="translate(-4.17 356.99) rotate(-45)"/><rect class="cls-15" x="423.63" y="178.62" width="2" height="12.2" transform="translate(-6.24 354.36) rotate(-45)"/><rect class="cls-15" x="418.85" y="180.47" width="2" height="9.75" transform="translate(-8.07 351.19) rotate(-45)"/><rect class="cls-15" x="414.03" y="181.51" width="2" height="8.83" transform="translate(-9.92 347.89) rotate(-45)"/><rect class="cls-15" x="409.06" y="183.05" width="2" height="6.62" transform="translate(-11.67 344.54) rotate(-45)"/><rect class="cls-15" x="404.48" y="184.75" width="2" height="4.86" transform="translate(-13.6 341.55) rotate(-45)"/></g><g><path class="cls-13" d="m216.5,47.45s8.61,6.53,8.55,14.51c-.06,7.98-8.77,14.38-8.77,14.38,0,0-8.61-6.53-8.55-14.51.06-7.98,8.77-14.38,8.77-14.38Z"/><path class="cls-13" d="m236.31,55.51s1.76,10.67-3.77,16.42c-5.53,5.75-16.26,4.41-16.26,4.41,0,0-1.76-10.67,3.77-16.42,5.53-5.75,16.26-4.41,16.26-4.41Z"/><g><path class="cls-15" d="m219.42,77.53c-1.99,0-3.37-.19-3.53-.21l-.74-.11-.11-.74c-.07-.46-1.56-11.26,4.37-17.19,5.93-5.93,16.73-4.44,17.19-4.37l.74.11.11.74c.07.46,1.56,11.26-4.37,17.19-3.89,3.89-9.87,4.58-13.66,4.58Zm-2.47-2.11c2.48.21,10.35.49,14.72-3.88,4.37-4.38,4.1-12.25,3.88-14.72-2.48-.21-10.34-.49-14.72,3.88-4.39,4.39-4.1,12.25-3.89,14.72Z"/><path class="cls-15" d="m211.47,73.31c-2.3-2.66-5.03-6.81-4.99-11.49.06-8.38,8.8-14.91,9.17-15.18l.6-.44.6.45c.16.12,3.85,2.94,6.45,7.2l-1.71,1.04c-1.81-2.96-4.25-5.21-5.36-6.16-1.91,1.59-7.71,6.91-7.75,13.1-.03,4.06,2.44,7.77,4.51,10.16l-1.51,1.31Z"/></g></g><g class="cls-30"><path class="cls-17" d="m102.93,213.23c0,.43.24.79.59,1,10.35-1.24,18.38-9.33,18.38-19.12v-1h-18.97v19.12Z"/></g><g><path class="cls-7" d="m117.39,195.11c0,10.11-9.01,18.3-20.13,18.3s-20.13-8.2-20.13-18.3h40.26Z"/><path class="cls-13" d="m114.08,195.11c0,8.57-7.64,15.52-17.07,15.52s-17.07-6.95-17.07-15.52h34.15Z"/><g class="cls-29"><path class="cls-8" d="m106.84,195.11c0,4.73-4.22,8.56-9.42,8.56s-9.42-3.83-9.42-8.56h18.84Z"/></g><path class="cls-15" d="m97.26,214.41c-11.65,0-21.13-8.66-21.13-19.3v-1h42.26v1c0,10.64-9.48,19.3-21.13,19.3Zm-19.1-18.3c.57,9.08,8.92,16.3,19.1,16.3s18.52-7.23,19.1-16.3h-38.2Z"/><path class="cls-15" d="m97.26,211.79c-10.06,0-18.25-7.48-18.25-16.68,0-.55.45-1,1-1s1,.45,1,1c0,8.1,7.29,14.68,16.25,14.68s16.24-6.59,16.24-14.68c0-.55.45-1,1-1s1,.45,1,1c0,9.2-8.18,16.68-18.24,16.68Z"/><path class="cls-15" d="m97.26,208.64c-.55,0-1-.45-1-1v-2.01c0-.55.45-1,1-1s1,.45,1,1v2.01c0,.55-.45,1-1,1Z"/><path class="cls-15" d="m101.59,200.78c-.28,0-.56-.12-.76-.34l-1.32-1.52c-.36-.42-.32-1.05.1-1.41.42-.36,1.05-.32,1.41.1l1.32,1.52c.36.42.32,1.05-.1,1.41-.19.17-.42.25-.65.25Z"/><path class="cls-15" d="m93.28,200.78c-.23,0-.47-.08-.65-.25-.42-.36-.46-.99-.1-1.41l1.32-1.52c.36-.42.99-.46,1.41-.1.42.36.46.99.1,1.41l-1.32,1.52c-.2.23-.48.34-.76.34Z"/><path class="cls-15" d="m91.54,207.23c-.15,0-.31-.04-.46-.11-.49-.25-.68-.86-.43-1.35l.92-1.79c.25-.49.85-.69,1.35-.43.49.25.69.86.43,1.35l-.92,1.79c-.18.34-.53.54-.89.54Z"/><path class="cls-15" d="m87.1,203.36c-.31,0-.62-.14-.81-.42-.32-.45-.22-1.07.23-1.39l1.63-1.17c.45-.32,1.07-.22,1.4.23.32.45.22,1.07-.23,1.39l-1.63,1.17c-.18.13-.38.19-.58.19Z"/><path class="cls-15" d="m84.92,197.88c-.49,0-.91-.36-.99-.85-.08-.55.3-1.05.84-1.14l1.98-.29c.54-.07,1.06.29,1.14.84.08.55-.3,1.05-.84,1.14l-1.98.29s-.1.01-.15.01Z"/><path class="cls-15" d="m103.84,207.23c-.36,0-.71-.2-.89-.54l-.92-1.79c-.25-.49-.06-1.09.43-1.35.49-.25,1.09-.06,1.35.43l.92,1.79c.25.49.06,1.09-.43,1.35-.15.08-.3.11-.46.11Z"/><path class="cls-15" d="m108.28,203.36c-.2,0-.41-.06-.58-.19l-1.63-1.17c-.45-.32-.55-.95-.23-1.39.32-.45.95-.55,1.4-.23l1.63,1.17c.45.32.55.95.23,1.39-.2.27-.5.42-.81.42Z"/><path class="cls-15" d="m110.46,197.88s-.1,0-.15-.01l-1.98-.29c-.55-.08-.92-.59-.84-1.14.08-.55.59-.92,1.14-.84l1.98.29c.55.08.92.59.84,1.14-.07.5-.5.85-.99.85Z"/></g><g><path class="cls-5" d="m278.63,165.65s-.05-.04-.08-.04h-9.53c-.08,0-.12.08-.08.15l4.96,7.43h10.29l-5.56-7.54Z"/><path class="cls-15" d="m283.39,173.78l-5.28-7.17h-7.38l4.02,6.02-1.66,1.11-5.29-7.93.28-.62c.19-.36.56-.58.97-.58h10.03l.38.43,5.56,7.55-1.61,1.19Z"/><path class="cls-5" d="m287.24,173.19h-13.34v39.94c0,.16.13.29.29.29h59.51c.16,0,.29-.13.29-.29v-36.81l6.22-7.78s0-.06-.03-.06h-13.49s-.02,0-.03.01l-4.21,4.69h-35.21Z"/><path class="cls-8" d="m340.18,168.48h-13.49s-.02,0-.03.01l-.02.03s.02.01.01.02l-4.2,4.64-.09,39.94c0,.16-.13.29-.29.29h11.62c.16,0,.29-.13.29-.29v-36.81l6.22-7.78s0-.06-.03-.06Z"/><path class="cls-15" d="m333.7,214.41h-59.51c-.71,0-1.29-.58-1.29-1.29v-40.94h31.79v2h-29.79v38.23h58.08v-36.44l5.19-6.49h-11.06l-4.22,4.7h-7.9v-2h7.01l4.21-4.69h.47s14.12-.01,14.12-.01l.58,1.16-.4.53-6,7.5v36.46c0,.71-.58,1.29-1.29,1.29Z"/><rect class="cls-15" x="321.45" y="176.81" width="2" height="36.6"/><rect class="cls-15" x="325.92" y="175.81" width="5.19" height="2"/></g><g><path class="cls-13" d="m383.43,140.49l3.22,10.06v62.85c0,.12-.07-.06-.18,0h-6.59l.32-62.85,3.22-10.06Z"/><path class="cls-8" d="m383.44,188.08l3.36-3.28-.15,28.6c0,.12-.07-.06-.18,0h-6.59l.32-25.11,3.24-.21Z"/><polygon class="cls-13" points="379.88 150.25 351.38 150.25 354.15 139.75 383.44 140.32 379.88 150.25"/><path class="cls-13" d="m379.97,213.4h-28.81c-.13,0-.23-.1-.23-.23v-62.62h29.27v62.85c0,.13-.1,0-.23,0Z"/><path class="cls-8" d="m379.88,213.4h-28.64c-.18,0-.32-.14-.32-.32,0,0-.28-24.63,0-24.79,5.58-3.27,16.3,2.07,21.77,2.18,1.95.04,7.5-2.18,7.5-2.18v25.11c0,.18-.14,0-.32,0Z"/><path class="cls-15" d="m380.17,214.45c-.11,0-.22-.02-.35-.06h-28.67c-.68,0-1.23-.55-1.23-1.23v-63.62h31.27v64.39l-.47.35c-.11.08-.31.17-.56.17Zm-28.24-2.06h27.27v-60.85h-27.27v60.85Z"/><rect class="cls-15" x="376.53" y="144.52" width="10.56" height="2" transform="translate(126.55 464.58) rotate(-72.2)"/><polygon class="cls-15" points="386.55 214.61 386.25 214.4 379.88 214.4 379.88 212.4 385.65 212.4 385.65 150.7 382.47 140.79 384.38 140.18 387.65 150.55 387.65 214.01 386.55 214.61"/><rect class="cls-15" x="346.91" y="144.15" width="11.27" height="2" transform="translate(112.57 441.4) rotate(-73.37)"/><path class="cls-13" d="m383.43,139.75h-29.27v-5.43c0-.16.13-.29.29-.29h28.69c.16,0,.29.13.29.29v5.43Z"/><path class="cls-15" d="m384.43,140.75h-31.27v-6.43c0-.71.58-1.29,1.29-1.29h28.69c.71,0,1.29.58,1.29,1.29v6.43Zm-29.27-2h27.27v-3.72h-27.27v3.72Z"/><rect class="cls-15" x="359.12" y="165.29" width="12.9" height="2"/><rect class="cls-15" x="359.12" y="171.58" width="12.9" height="2"/><path class="cls-15" d="m372.7,191.47c-2.86,0-5.7-.82-8.44-1.61-4.47-1.29-8.69-2.5-12.87-.36l-.91-1.78c4.89-2.5,9.7-1.12,14.34.22,2.73.79,5.31,1.53,7.89,1.53.74,0,2.1-.47,3.31-.88,1.48-.51,2.88-.98,3.95-.98v2c-.74,0-2.1.47-3.31.88-1.48.51-2.88.98-3.95.98Z"/><path class="cls-15" d="m381.55,189.47c-.95,0-1.61-.21-1.66-.23l.63-1.9-.32.95.31-.95s1.42.43,2.78-.28c1.08-.57,1.89-1.73,2.41-3.43l1.91.58c-.68,2.25-1.83,3.82-3.42,4.64-.94.49-1.88.63-2.64.63Z"/></g><g class="cls-30"><path class="cls-17" d="m332.22,213.88c.61.22,1.24.37,1.89.45.51-.17.88-.64.88-1.2v-34.08h-2.24v2.53c-.14.21-.27.42-.38.64-1.38.36-2.65,1.08-3.69,2.09-.03,0-.07,0-.1,0-2.09.08-4.02.96-5.44,2.5-1.42,1.53-2.16,3.52-2.08,5.67l1.48,14.41c.08,2.12.77,4.02,1.96,5.36,1.25,1.42,2.94,2.16,4.91,2.16.1,0,.2,0,.3,0,.89-.03,1.73-.22,2.52-.52Z"/><path class="cls-17" d="m338.47,169.59h-.99v3.05c-.08.37-.17.79-.26,1.24l3.77-4.71.4-.53-.02-.05h-.8c-.84,0-1.59.39-2.09,1Z"/></g><g><path class="cls-13" d="m345.76,179.22c-.27-3.06,1.14-7.9,1.14-7.9,0-.95-.77-1.72-1.72-1.72h-1.61c-.95,0-1.72.77-1.72,1.72,0,0-1.36,4.85-1.14,7.9h5.05Z"/><path class="cls-15" d="m344.76,179.31c-.25-2.91.87-7.19,1.13-8.1-.05-.35-.35-.61-.71-.61h-1.61c-.4,0-.72.32-.72.72l-.04.27s-1.31,4.72-1.1,7.56l-1.99.15c-.22-2.96.92-7.33,1.14-8.13.08-1.43,1.27-2.57,2.72-2.57h1.61c1.5,0,2.72,1.22,2.72,2.72l-.04.28s-1.35,4.71-1.1,7.54l-1.99.17Z"/><path class="cls-13" d="m350.72,184.71c0,3.13-3.35,5.66-7.49,5.66s-7.49-2.53-7.49-5.66,3.35-5.66,7.49-5.66,7.49,2.54,7.49,5.66Z"/><path class="cls-15" d="m343.23,191.37c-4.68,0-8.49-2.99-8.49-6.66s3.81-6.66,8.49-6.66,8.49,2.99,8.49,6.66-3.81,6.66-8.49,6.66Zm0-11.32c-3.58,0-6.49,2.09-6.49,4.66s2.91,4.66,6.49,4.66,6.49-2.09,6.49-4.66-2.91-4.66-6.49-4.66Z"/><path class="cls-12" d="m339.22,206.34c.14,3.76-2.79,6.93-6.56,7.07h0c-3.76.14-5.99-2.79-6.13-6.55l-1.48-14.48c-.14-3.76,2.79-6.93,6.56-7.07h0c3.76-.14,6.93,2.79,7.07,6.56l.55,14.48Z"/><path class="cls-15" d="m332.4,214.41c-1.97,0-3.66-.74-4.91-2.16-1.18-1.34-1.88-3.25-1.96-5.36l-1.48-14.41c-.08-2.15.66-4.14,2.08-5.67,1.42-1.53,3.35-2.42,5.44-2.5,2.06-.08,4.08.66,5.61,2.08,1.53,1.42,2.42,3.35,2.5,5.44l.55,14.47c.08,2.09-.66,4.08-2.08,5.61-1.42,1.53-3.35,2.42-5.44,2.5-.1,0-.2,0-.3,0Zm-.53-28.11c-.07,0-.15,0-.22,0-1.55.06-2.99.72-4.05,1.86-1.06,1.14-1.61,2.62-1.55,4.17l1.48,14.41c.07,1.72.58,3.18,1.46,4.18.9,1.02,2.16,1.53,3.64,1.48,1.55-.06,2.99-.72,4.05-1.86,1.06-1.14,1.61-2.62,1.55-4.17l-.55-14.47c-.06-1.55-.72-2.99-1.86-4.05-1.08-1.01-2.48-1.55-3.95-1.55Z"/><path class="cls-12" d="m345.48,205.73c.15,4.08-3.03,7.51-7.1,7.66h0c-4.08.16-7.51-3.03-7.66-7.1l-.59-15.69c-.15-4.08,3.03-7.51,7.1-7.66h0c4.08-.15,7.51,3.03,7.66,7.1l.59,15.69Z"/><path class="cls-15" d="m338.06,214.39c-2.09,0-4.1-.79-5.66-2.24-1.64-1.52-2.59-3.6-2.68-5.84l-.59-15.69c-.08-2.24.71-4.38,2.23-6.02,1.52-1.64,3.6-2.59,5.83-2.68,2.24-.08,4.38.71,6.02,2.23,1.64,1.52,2.59,3.59,2.68,5.83l.59,15.69c.09,2.43-.27,4.39-1.08,5.83-1.01,1.79-2.72,2.79-4.96,2.87h-2.07c-.11,0-.21,0-.32,0Zm-.54-30.46c-.08,0-.16,0-.25,0-1.71.06-3.28.79-4.44,2.04s-1.76,2.88-1.7,4.58l.59,15.69c.06,1.71.79,3.28,2.04,4.44,1.25,1.16,2.88,1.76,4.58,1.7h2.07c1.51-.06,2.59-.66,3.25-1.85.62-1.11.9-2.72.82-4.78h0s-.59-15.69-.59-15.69c-.06-1.7-.79-3.28-2.04-4.44-1.19-1.1-2.72-1.7-4.34-1.7Z"/><path class="cls-12" d="m346.76,206.34c-.14,3.76,2.79,6.93,6.56,7.07h0c3.76.14,5.99-2.79,6.13-6.55l1.48-14.48c.14-3.76-2.79-6.93-6.56-7.07h0c-3.76-.14-6.93,2.79-7.07,6.56l-.55,14.48Z"/><path class="cls-15" d="m353.58,214.41c-.1,0-.2,0-.3,0-2.09-.08-4.02-.96-5.44-2.5-1.42-1.53-2.16-3.52-2.08-5.61l.55-14.47c.08-2.09.96-4.02,2.5-5.44,1.53-1.42,3.51-2.17,5.61-2.08,2.09.08,4.02.96,5.44,2.5,1.42,1.53,2.16,3.52,2.08,5.61l-1.49,14.54c-.08,2.05-.77,3.96-1.95,5.3-1.25,1.41-2.94,2.16-4.91,2.16Zm-5.82-8.04c-.06,1.55.49,3.04,1.55,4.17,1.06,1.14,2.49,1.8,4.05,1.86,1.48.06,2.74-.45,3.64-1.48.88-1,1.4-2.46,1.46-4.12l1.49-14.54c.05-1.49-.5-2.97-1.55-4.11-1.06-1.14-2.49-1.8-4.05-1.86-1.56-.06-3.04.49-4.17,1.55-1.14,1.06-1.8,2.49-1.86,4.05l-.55,14.47Z"/><path class="cls-12" d="m340.49,205.73c-.15,4.08,3.03,7.51,7.1,7.66h0c4.08.16,7.51-3.03,7.66-7.1l.59-15.69c.15-4.08-3.03-7.51-7.1-7.66h0c-4.08-.15-7.51,3.03-7.66,7.1l-.59,15.69Z"/><path class="cls-15" d="m347.89,214.39c-.11,0-.22,0-.33,0h-1.99c-2.28-.08-3.99-1.08-5-2.87-.81-1.44-1.17-3.4-1.08-5.83l.59-15.69c.17-4.62,4.07-8.23,8.7-8.06,2.24.08,4.31,1.03,5.83,2.68,1.52,1.64,2.32,3.78,2.23,6.02l-.59,15.69c-.08,2.24-1.04,4.31-2.68,5.83-1.56,1.45-3.57,2.24-5.69,2.24Zm-.29-2.01c1.75.06,3.37-.54,4.62-1.7,1.25-1.16,1.98-2.74,2.04-4.44l.59-15.69c.06-1.71-.54-3.33-1.7-4.58s-2.74-1.97-4.44-2.04c-3.54-.13-6.49,2.62-6.63,6.14l-.59,15.69c-.08,2.06.2,3.66.82,4.77.67,1.19,1.74,1.79,3.29,1.85h1.99Z"/><path class="cls-11" d="m350.53,205.91c0,4.14-3.35,7.49-7.49,7.49h0c-4.14,0-7.49-3.35-7.49-7.49v-15.91c0-4.14,3.35-7.49,7.49-7.49h0c4.14,0,7.49,3.35,7.49,7.49v15.91Z"/><path class="cls-15" d="m343.04,214.4c-4.68,0-8.49-3.81-8.49-8.49v-15.91c0-4.68,3.81-8.49,8.49-8.49s8.49,3.81,8.49,8.49v15.91c0,4.68-3.81,8.49-8.49,8.49Zm0-30.89c-3.58,0-6.49,2.91-6.49,6.49v15.91c0,3.58,2.91,6.49,6.49,6.49s6.49-2.91,6.49-6.49v-15.91c0-3.58-2.91-6.49-6.49-6.49Z"/><path class="cls-15" d="m344.13,210.96l-.86-1.8c1.37-.66,2.48-1.77,3.11-3.15l1.82.84c-.83,1.8-2.27,3.26-4.07,4.11Z"/></g><g><path class="cls-15" d="m66.64,208.55c-1.12,0-2.4-.21-3.83-.74-.52-.19-.78-.77-.59-1.29.19-.52.77-.78,1.29-.59,4.78,1.78,7.32-.93,7.43-1.04.37-.41,1-.44,1.41-.07.41.37.45.99.08,1.4-.11.12-2.11,2.32-5.79,2.32Z"/><path class="cls-13" d="m33.33,213.41c-4-.09-7.17-3.4-7.08-7.4h0c.09-4,3.4-7.17,7.4-7.08,0,0,9.16,1.31,12.24,1.38,3.08.07,12.26.28,12.26.28,4,.09,7.09,3.74,7.1,6.3.02,3.86-3.38,6.06-7.38,5.97l-24.55.55Z"/><g class="cls-31"><path class="cls-8" d="m33.52,205.4c-4-.09-4.89-2.83-4.85-4.61l1-.76c.02-.48,0-1.18,3.99-1.09,0,0,9.17.7,12.25.77,3.08.07,12.26.28,12.26.28,4,.09,4.85,3.78,4.9,4.92.07,1.72-1.03.65-5.03.56l-24.53-.06Z"/></g><path class="cls-8" d="m55.63,206.67l4.36-2.25-1.35-3.77c4,.09,6.6,3.67,6.61,6.23.02,3.86-2.89,6.07-6.89,5.98l1.56-3.36-4.3-2.84Z"/><path class="cls-15" d="m33.33,214.41h-.02c-2.2-.05-4.25-.95-5.77-2.54s-2.33-3.68-2.28-5.88c.1-4.54,3.92-8.15,8.43-8.06h.12c.09.02,9.13,1.31,12.12,1.38l12.26.28c4.45.1,8.06,4.07,8.08,7.29.01,1.83-.65,3.45-1.91,4.69-1.54,1.51-3.9,2.36-6.5,2.29l-24.53.55Zm.16-14.48c-3.38,0-6.16,2.71-6.24,6.1-.04,1.67.58,3.25,1.73,4.45,1.15,1.2,2.69,1.88,4.35,1.93l24.53-.55c2.12.06,3.94-.58,5.09-1.71.88-.86,1.32-1.96,1.31-3.25-.01-2.03-2.65-5.23-6.12-5.31l-12.26-.28c-3-.07-11.42-1.26-12.29-1.38-.03,0-.06,0-.08,0Z"/><path class="cls-15" d="m35.04,211.99c-3-.07-5.71-1.72-7.11-4.32-.26-.49-.08-1.09.4-1.36.48-.26,1.09-.08,1.35.4,1.07,1.97,3.12,3.22,5.35,3.27l4.98-.11c.55-.01,1.01.43,1.02.98.01.55-.42,1.01-.98,1.02l-5.03.11Z"/><path class="cls-15" d="m58.75,213.88c-.11,0-.22-.02-.33-.06-.52-.18-.8-.75-.61-1.27l.91-2.59-3.22-1.86c-.59-.34-.91-.87-.88-1.45.04-.58.42-1.06,1.06-1.32l3.18-1.32-.8-3.11c-.14-.54.18-1.08.72-1.22.54-.14,1.08.19,1.22.72l1.23,4.79-3.93,1.63,3.85,2.22-1.46,4.16c-.14.41-.53.67-.94.67Z"/></g><g><path class="cls-15" d="m20.73,189.39c-.55,0-1-.45-1-1,0-7.08-6.84-13.14-6.91-13.2-.42-.36-.46-1-.1-1.41.36-.42.99-.46,1.41-.1.31.27,7.6,6.71,7.6,14.71,0,.55-.45,1-1,1Z"/><path class="cls-15" d="m19.65,184.1c-.44,0-.84-.29-.96-.73,0-.02-.5-1.68-2.11-2.52-1.34-.7-3.12-.67-5.28.07-.52.18-1.09-.1-1.27-.62-.18-.52.1-1.09.62-1.27,2.71-.94,5.03-.92,6.89.06,2.38,1.26,3.06,3.64,3.08,3.74.14.53-.17,1.08-.7,1.23-.09.02-.18.04-.26.04Z"/><path class="cls-15" d="m19.87,189.2c-.55,0-1-.45-1-1,0-8,7.29-14.44,7.6-14.71.42-.36,1.05-.32,1.41.1.36.42.32,1.05-.1,1.41-.07.06-6.91,6.12-6.91,13.2,0,.55-.45,1-1,1Z"/><path class="cls-15" d="m20.96,183.92c-.09,0-.18-.01-.26-.04-.53-.14-.85-.69-.7-1.23.03-.1.7-2.48,3.08-3.74,1.86-.98,4.17-1,6.89-.06.52.18.8.75.62,1.27-.18.52-.75.8-1.27.62-2.17-.75-3.95-.77-5.3-.06-1.6.84-2.08,2.48-2.09,2.5-.12.45-.52.74-.96.74Z"/><path class="cls-10" d="m20.44,213.41h0c-3.05,0-5.51-25.64-5.51-25.64,0-3.05,2.47-5.51,5.51-5.51h0c3.04,0,5.51,2.47,5.51,5.51,0,0-2.47,25.64-5.51,25.64Z"/><path class="cls-15" d="m20.44,214.41c-1.34,0-2.92-1.06-4.89-13.67-.99-6.36-1.62-12.81-1.62-12.88,0-3.69,2.92-6.61,6.51-6.61h0c1.74,0,3.37.68,4.6,1.91,1.23,1.23,1.91,2.87,1.91,4.61-.01.16-.64,6.61-1.63,12.97-1.96,12.61-3.55,13.67-4.89,13.67Zm0-31.15h0c-2.49,0-4.51,2.02-4.51,4.51,1.02,10.56,3,22.62,4.51,24.5,1.51-1.88,3.49-13.94,4.52-24.6,0-1.11-.47-2.24-1.33-3.1-.85-.85-1.98-1.32-3.19-1.32Z"/><path class="cls-15" d="m20.44,182.48c-.55,0-1-.45-1-1,0-7.7-2.85-9.07-2.88-9.08-.49-.22-.73-.8-.53-1.3.21-.5.76-.75,1.27-.56.42.16,4.14,1.84,4.14,10.94,0,.55-.45,1-1,1Z"/><path class="cls-15" d="m20.44,182.48c-.55,0-1-.45-1-1,0-9.1,3.71-10.78,4.14-10.94.51-.2,1.09.06,1.29.58.19.51-.05,1.08-.56,1.28-.1.05-2.87,1.48-2.87,9.08,0,.55-.45,1-1,1Z"/><path class="cls-15" d="m18.1,190.63h-2.32c-.55,0-1-.45-1-1s.45-1,1-1h2.32c.55,0,1,.45,1,1s-.45,1-1,1Z"/><path class="cls-15" d="m21.6,194.78h-2.32c-.55,0-1-.45-1-1s.45-1,1-1h2.32c.55,0,1,.45,1,1s-.45,1-1,1Z"/><path class="cls-15" d="m25.09,188.31h-2.32c-.55,0-1-.45-1-1s.45-1,1-1h2.32c.55,0,1,.45,1,1s-.45,1-1,1Z"/><path class="cls-15" d="m19.26,202.04h-2.32c-.55,0-1-.45-1-1s.45-1,1-1h2.32c.55,0,1,.45,1,1s-.45,1-1,1Z"/><path class="cls-15" d="m23.93,198.84h-2.32c-.55,0-1-.45-1-1s.45-1,1-1h2.32c.55,0,1,.45,1,1s-.45,1-1,1Z"/><path class="cls-15" d="m22.76,207.85h-2.32c-.55,0-1-.45-1-1s.45-1,1-1h2.32c.55,0,1,.45,1,1s-.45,1-1,1Z"/></g><g><path class="cls-13" d="m400.56,171.82s1.14,6.2-1.97,9.32c-3.12,3.12-9.32,1.97-9.32,1.97,0,0-1.15-6.2,1.97-9.32,3.12-3.12,9.32-1.97,9.32-1.97Z"/><path class="cls-15" d="m391.89,184.32c-1.55,0-2.7-.2-2.81-.22l-.68-.12-.12-.68c-.05-.27-1.2-6.76,2.25-10.21,3.45-3.45,9.94-2.3,10.21-2.25l.68.12.12.68c.05.27,1.2,6.76-2.25,10.21-2.04,2.04-5.15,2.47-7.4,2.47Zm-1.74-2.1c1.61.17,5.59.34,7.72-1.79,2.14-2.14,1.97-6.11,1.79-7.72-1.61-.17-5.59-.34-7.73,1.79-2.13,2.13-1.96,6.11-1.79,7.73Z"/><path class="cls-13" d="m371.34,171.82s-1.14,6.2,1.97,9.32c3.12,3.12,9.32,1.97,9.32,1.97,0,0,1.15-6.2-1.97-9.32-3.12-3.12-9.32-1.97-9.32-1.97Z"/><path class="cls-15" d="m380.01,184.32c-2.25,0-5.36-.43-7.4-2.47-3.45-3.45-2.3-9.93-2.25-10.21l.12-.68.68-.12c.27-.05,6.76-1.21,10.21,2.25s2.3,9.94,2.25,10.21l-.12.68-.68.12c-.11.02-1.26.22-2.81.22Zm-7.78-11.61c-.17,1.61-.34,5.59,1.79,7.72,2.14,2.14,6.12,1.97,7.73,1.79.17-1.61.34-5.59-1.79-7.73-2.13-2.13-6.11-1.96-7.73-1.79Z"/><path class="cls-13" d="m386.77,169.48s5.19,3.57,5.2,7.99c0,4.41-5.2,7.99-5.2,7.99,0,0-5.2-3.57-5.2-7.99s5.2-7.98,5.2-7.98Z"/><path class="cls-15" d="m391.96,178.46c-.55,0-1-.45-1-1,0-3.03-2.93-5.71-4.19-6.73-1.26,1.02-4.2,3.71-4.2,6.73,0,.55-.45,1-1,1s-1-.45-1-1c0-4.88,5.4-8.65,5.63-8.81l.57-.39.57.39c.23.16,5.63,3.93,5.63,8.81,0,.55-.45,1-1,1Z"/><path class="cls-10" d="m391.5,209.18c0,2.29-1.85,4.14-4.14,4.14s-4.14-1.85-4.14-4.14,1.85-4.14,4.14-4.14,4.14,1.85,4.14,4.14Z"/><path class="cls-9" d="m389.33,210.14c0,1.21-.98,2.2-2.2,2.2s-2.2-.98-2.2-2.2.98-2.2,2.2-2.2,2.2.98,2.2,2.2Z"/><path class="cls-15" d="m387.36,214.32c-2.83,0-5.14-2.31-5.14-5.14s2.3-5.14,5.14-5.14,5.14,2.3,5.14,5.14-2.3,5.14-5.14,5.14Zm0-8.28c-1.73,0-3.14,1.41-3.14,3.14s1.41,3.14,3.14,3.14,3.14-1.41,3.14-3.14-1.41-3.14-3.14-3.14Z"/><path class="cls-10" d="m386.82,202.95c0,2.29-1.85,4.14-4.14,4.14s-4.14-1.85-4.14-4.14,1.85-4.14,4.14-4.14,4.14,1.85,4.14,4.14Z"/><path class="cls-9" d="m384.66,203.91c0,1.21-.98,2.2-2.2,2.2s-2.2-.98-2.2-2.2.98-2.2,2.2-2.2,2.2.98,2.2,2.2Z"/><path class="cls-15" d="m382.69,208.09c-2.83,0-5.14-2.31-5.14-5.14s2.3-5.14,5.14-5.14,5.14,2.3,5.14,5.14-2.3,5.14-5.14,5.14Zm0-8.28c-1.73,0-3.14,1.41-3.14,3.14s1.41,3.14,3.14,3.14,3.14-1.41,3.14-3.14-1.41-3.14-3.14-3.14Z"/><path class="cls-10" d="m395.87,202.95c0,2.29-1.85,4.14-4.14,4.14s-4.14-1.85-4.14-4.14,1.85-4.14,4.14-4.14,4.14,1.85,4.14,4.14Z"/><path class="cls-9" d="m393.7,203.91c0,1.21-.98,2.2-2.2,2.2s-2.2-.98-2.2-2.2.98-2.2,2.2-2.2,2.2.98,2.2,2.2Z"/><path class="cls-15" d="m391.73,208.09c-2.83,0-5.14-2.31-5.14-5.14s2.3-5.14,5.14-5.14,5.14,2.3,5.14,5.14-2.3,5.14-5.14,5.14Zm0-8.28c-1.73,0-3.14,1.41-3.14,3.14s1.41,3.14,3.14,3.14,3.14-1.41,3.14-3.14-1.41-3.14-3.14-3.14Z"/><path class="cls-10" d="m383.18,196.84c0,2.29-1.85,4.14-4.14,4.14s-4.14-1.85-4.14-4.14,1.85-4.14,4.14-4.14,4.14,1.85,4.14,4.14Z"/><path class="cls-9" d="m381.02,197.8c0,1.21-.98,2.2-2.2,2.2s-2.2-.98-2.2-2.2.98-2.2,2.2-2.2,2.2.98,2.2,2.2Z"/><path class="cls-15" d="m379.04,201.98c-2.83,0-5.14-2.31-5.14-5.14s2.3-5.14,5.14-5.14,5.14,2.3,5.14,5.14-2.3,5.14-5.14,5.14Zm0-8.28c-1.73,0-3.14,1.41-3.14,3.14s1.41,3.14,3.14,3.14,3.14-1.41,3.14-3.14-1.41-3.14-3.14-3.14Z"/><path class="cls-10" d="m399.55,196.84c0,2.29-1.85,4.14-4.14,4.14s-4.14-1.85-4.14-4.14,1.85-4.14,4.14-4.14,4.14,1.85,4.14,4.14Z"/><path class="cls-9" d="m397.38,197.8c0,1.21-.98,2.2-2.2,2.2s-2.2-.98-2.2-2.2.98-2.2,2.2-2.2,2.2.98,2.2,2.2Z"/><path class="cls-15" d="m395.41,201.98c-2.83,0-5.14-2.31-5.14-5.14s2.3-5.14,5.14-5.14,5.14,2.3,5.14,5.14-2.3,5.14-5.14,5.14Zm0-8.28c-1.73,0-3.14,1.41-3.14,3.14s1.41,3.14,3.14,3.14,3.14-1.41,3.14-3.14-1.41-3.14-3.14-3.14Z"/><path class="cls-10" d="m391.46,196.84c0,2.29-1.85,4.14-4.14,4.14s-4.14-1.85-4.14-4.14,1.85-4.14,4.14-4.14,4.14,1.85,4.14,4.14Z"/><path class="cls-9" d="m389.29,197.8c0,1.21-.98,2.2-2.2,2.2s-2.2-.98-2.2-2.2.98-2.2,2.2-2.2,2.2.98,2.2,2.2Z"/><path class="cls-15" d="m387.32,201.98c-2.83,0-5.14-2.31-5.14-5.14s2.3-5.14,5.14-5.14,5.14,2.3,5.14,5.14-2.3,5.14-5.14,5.14Zm0-8.28c-1.73,0-3.14,1.41-3.14,3.14s1.41,3.14,3.14,3.14,3.14-1.41,3.14-3.14-1.41-3.14-3.14-3.14Z"/><path class="cls-10" d="m382.78,183.2c0,2.29-1.85,4.14-4.14,4.14s-4.14-1.85-4.14-4.14,1.85-4.14,4.14-4.14,4.14,1.85,4.14,4.14Z"/><path class="cls-9" d="m380.61,184.16c0,1.21-.98,2.2-2.2,2.2s-2.2-.98-2.2-2.2.98-2.2,2.2-2.2,2.2.98,2.2,2.2Z"/><path class="cls-15" d="m378.64,188.34c-2.83,0-5.14-2.3-5.14-5.14s2.3-5.14,5.14-5.14,5.14,2.3,5.14,5.14-2.3,5.14-5.14,5.14Zm0-8.28c-1.73,0-3.14,1.41-3.14,3.14s1.41,3.14,3.14,3.14,3.14-1.41,3.14-3.14-1.41-3.14-3.14-3.14Z"/><path class="cls-10" d="m399.15,183.2c0,2.29-1.85,4.14-4.14,4.14s-4.14-1.85-4.14-4.14,1.85-4.14,4.14-4.14,4.14,1.85,4.14,4.14Z"/><path class="cls-9" d="m396.98,184.16c0,1.21-.98,2.2-2.2,2.2s-2.2-.98-2.2-2.2.98-2.2,2.2-2.2,2.2.98,2.2,2.2Z"/><path class="cls-15" d="m395.01,188.34c-2.83,0-5.14-2.3-5.14-5.14s2.3-5.14,5.14-5.14,5.14,2.3,5.14,5.14-2.3,5.14-5.14,5.14Zm0-8.28c-1.73,0-3.14,1.41-3.14,3.14s1.41,3.14,3.14,3.14,3.14-1.41,3.14-3.14-1.41-3.14-3.14-3.14Z"/><path class="cls-10" d="m391.05,183.2c0,2.29-1.85,4.14-4.14,4.14s-4.14-1.85-4.14-4.14,1.85-4.14,4.14-4.14,4.14,1.85,4.14,4.14Z"/><path class="cls-9" d="m388.89,184.16c0,1.21-.98,2.2-2.2,2.2s-2.2-.98-2.2-2.2.98-2.2,2.2-2.2,2.2.98,2.2,2.2Z"/><path class="cls-15" d="m386.92,188.34c-2.83,0-5.14-2.3-5.14-5.14s2.3-5.14,5.14-5.14,5.14,2.3,5.14,5.14-2.3,5.14-5.14,5.14Zm0-8.28c-1.73,0-3.14,1.41-3.14,3.14s1.41,3.14,3.14,3.14,3.14-1.41,3.14-3.14-1.41-3.14-3.14-3.14Z"/><path class="cls-10" d="m379.14,189.98c0,2.29-1.85,4.14-4.14,4.14s-4.14-1.85-4.14-4.14,1.85-4.14,4.14-4.14,4.14,1.85,4.14,4.14Z"/><path class="cls-9" d="m376.97,190.94c0,1.21-.98,2.2-2.2,2.2s-2.2-.98-2.2-2.2.98-2.2,2.2-2.2,2.2.98,2.2,2.2Z"/><path class="cls-15" d="m375,195.12c-2.83,0-5.14-2.31-5.14-5.14s2.3-5.14,5.14-5.14,5.14,2.3,5.14,5.14-2.3,5.14-5.14,5.14Zm0-8.28c-1.73,0-3.14,1.41-3.14,3.14s1.41,3.14,3.14,3.14,3.14-1.41,3.14-3.14-1.41-3.14-3.14-3.14Z"/><path class="cls-10" d="m403.46,189.98c0,2.29-1.85,4.14-4.14,4.14s-4.14-1.85-4.14-4.14,1.85-4.14,4.14-4.14,4.14,1.85,4.14,4.14Z"/><path class="cls-15" d="m399.32,195.12c-2.83,0-5.14-2.31-5.14-5.14s2.31-5.14,5.14-5.14,5.14,2.3,5.14,5.14-2.3,5.14-5.14,5.14Zm0-8.28c-1.73,0-3.14,1.41-3.14,3.14s1.41,3.14,3.14,3.14,3.14-1.41,3.14-3.14-1.41-3.14-3.14-3.14Z"/><path class="cls-9" d="m401.3,190.94c0,1.21-.98,2.2-2.2,2.2s-2.2-.98-2.2-2.2.98-2.2,2.2-2.2,2.2.98,2.2,2.2Z"/><path class="cls-10" d="m395.5,189.98c0,2.29-1.85,4.14-4.14,4.14s-4.14-1.85-4.14-4.14,1.85-4.14,4.14-4.14,4.14,1.85,4.14,4.14Z"/><path class="cls-9" d="m393.34,190.94c0,1.21-.98,2.2-2.2,2.2s-2.2-.98-2.2-2.2.98-2.2,2.2-2.2,2.2.98,2.2,2.2Z"/><path class="cls-15" d="m391.37,195.12c-2.83,0-5.14-2.31-5.14-5.14s2.3-5.14,5.14-5.14,5.14,2.3,5.14,5.14-2.3,5.14-5.14,5.14Zm0-8.28c-1.73,0-3.14,1.41-3.14,3.14s1.41,3.14,3.14,3.14,3.14-1.41,3.14-3.14-1.41-3.14-3.14-3.14Z"/><path class="cls-10" d="m387.41,189.98c0,2.29-1.85,4.14-4.14,4.14s-4.14-1.85-4.14-4.14,1.85-4.14,4.14-4.14,4.14,1.85,4.14,4.14Z"/><path class="cls-9" d="m385.25,190.94c0,1.21-.98,2.2-2.2,2.2s-2.2-.98-2.2-2.2.98-2.2,2.2-2.2,2.2.98,2.2,2.2Z"/><path class="cls-15" d="m383.27,195.12c-2.83,0-5.14-2.31-5.14-5.14s2.3-5.14,5.14-5.14,5.14,2.3,5.14,5.14-2.3,5.14-5.14,5.14Zm0-8.28c-1.73,0-3.14,1.41-3.14,3.14s1.41,3.14,3.14,3.14,3.14-1.41,3.14-3.14-1.41-3.14-3.14-3.14Z"/></g><g class="cls-30"><path class="cls-17" d="m256.28,213.41c-.2,0-.37-.16-.38-.36l-.99-19.65-2-3.01v-7.59c0-.21.17-.38.38-.38h10.72v30.71c0,.1-.04.19-.06.29h-7.67Z"/></g><g><path class="cls-8" d="m281.12,182.42h-24.56c-.21,0-.38.17-.38.38v7.59l2,3.01,1,19.65c.01.2.18.36.38.36h18.57c.2,0,.37-.16.38-.36l1-19.65,2-3.01v-7.59c0-.21-.17-.38-.38-.38Z"/><path class="cls-10" d="m273.27,198.64c-1.12.2-2.26.2-3.37,0l-11.55-2h0s.83,16.41.83,16.41c.01.2.18.36.38.36h18.57c.2,0,.37-.16.38-.36l.68-15.47-5.92,1.06Z"/><path class="cls-15" d="m271.58,199.94c-2.17,0-4.43-.6-6.63-1.18-2.23-.59-4.52-1.21-6.57-1.12l-.08-2c2.33-.1,4.8.55,7.17,1.18,2.16.57,4.21,1.12,6.11,1.12,1.36,0,3.19-.45,4.66-.81,1.26-.31,2.25-.55,2.95-.55v2c-.45,0-1.48.25-2.47.49-1.66.41-3.54.87-5.14.87Z"/></g><g><path class="cls-10" d="m193.34,199.38c0,7.75-6.28,14.04-14.03,14.04s-14.03-6.28-14.03-14.04,6.28-9.47,14.03-9.47,14.03,1.72,14.03,9.47Z"/><path class="cls-15" d="m179.31,214.41c-8.29,0-15.03-6.75-15.03-15.04,0-9.39,8.58-10.47,15.03-10.47s15.03,1.08,15.03,10.47c0,8.29-6.74,15.04-15.03,15.04Zm0-23.51c-9.14,0-13.03,2.53-13.03,8.47,0,7.19,5.85,13.04,13.03,13.04s13.03-5.85,13.03-13.04c0-5.94-3.9-8.47-13.03-8.47Z"/><path class="cls-15" d="m183.02,211.27c-.38,0-.75-.22-.91-.59-.22-.5,0-1.1.51-1.32,2.85-1.27,5.16-3.52,6.5-6.34.24-.5.83-.71,1.33-.48.5.24.71.83.48,1.33-1.54,3.25-4.2,5.85-7.49,7.32-.13.06-.27.09-.41.09Z"/><path class="cls-13" d="m179.53,186.59c.49.76,1.37,2.02,2.1,2.4.72.37,2.46.52,3.56.57.52.03.6.22.21.46-.92.56-2.43,1.54-2.71,2.16-.28.61.17,1.87.49,2.64.15.35,0,.42-.37.16-.95-.66-2.71-1.77-3.64-1.77s-2.69,1.11-3.64,1.77c-.37.26-.56.18-.45-.18.23-.79.53-2.09.26-2.7-.28-.61-1.59-1.53-2.42-2.07-.38-.25-.29-.45.23-.47,1.14-.05,3.02-.2,3.75-.58.73-.38,1.51-1.62,1.95-2.39.19-.34.49-.35.71-.01Z"/><path class="cls-15" d="m183.15,196.15c-.25,0-.56-.08-.92-.33-1.83-1.25-2.79-1.59-3.08-1.59s-1.25.33-3.08,1.59c-.78.53-1.32.3-1.58.12-.16-.11-.65-.55-.4-1.4.38-1.29.35-1.89.31-2.01-.08-.15-.62-.71-2.05-1.64-.81-.52-.7-1.2-.65-1.4.09-.32.38-.86,1.37-.91,1.98-.09,3.04-.31,3.34-.46.27-.14.83-.75,1.54-2,.27-.47.7-.75,1.19-.77.47-.01.94.25,1.23.71.82,1.28,1.44,1.91,1.72,2.05.31.16,1.3.37,3.15.46,1,.05,1.29.6,1.37.92.06.25.12.9-.7,1.39-1.61.97-2.23,1.56-2.33,1.73-.01.08.02.65.51,1.83.36.86-.11,1.34-.27,1.46-.14.11-.37.24-.68.24Zm-8.03-5.73c.74.62.99,1.01,1.11,1.28.08.17.26.58.17,1.54,1.75-1.02,2.48-1.02,2.75-1.02.26,0,.92,0,2.46.85-.08-.65.03-1.04.15-1.3.09-.19.28-.61,1.3-1.39-1.29-.18-1.72-.41-1.9-.5-.58-.3-1.24-.97-1.96-1.98-.65,1.01-1.28,1.67-1.87,1.98-.45.23-1.19.41-2.22.54Z"/><path class="cls-15" d="m180.06,190.75c0,.36-.41.65-.91.65s-.91-.29-.91-.65.41-.65.91-.65.91.29.91.65Z"/></g><g><path class="cls-13" d="m288.36,189.78s7.41-1.02,11.29,2.91c3.87,3.93,2.74,11.33,2.74,11.33,0,0-7.41,1.02-11.29-2.91s-2.74-11.33-2.74-11.33Z"/><path class="cls-13" d="m301.99,184.03s6.08,4.36,6.19,9.88c.11,5.52-5.8,10.11-5.8,10.11,0,0-6.08-4.36-6.19-9.88-.11-5.52,5.8-10.11,5.8-10.11Z"/><g><path class="cls-15" d="m302.26,205.39l-.6-.45c-.26-.2-6.4-4.84-6.4-10.8,0-5.95,6.13-10.6,6.4-10.8l.6-.45.6.45c.26.2,6.4,4.84,6.4,10.8s-6.14,10.6-6.4,10.8l-.6.45Zm0-19.94c-1.44,1.25-5,4.74-5,8.7,0,3.96,3.55,7.45,4.99,8.7,1.44-1.25,5-4.74,5-8.7s-3.55-7.45-4.99-8.7Z"/><path class="cls-15" d="m298.52,205.2c-2.48-.18-5.92-.89-8.26-3.27-4.18-4.24-3.08-11.86-3.03-12.18l.11-.74.74-.1c.14-.02,3.38-.45,6.79.37l-.47,1.94c-2.11-.51-4.19-.47-5.28-.4-.15,1.91-.23,6.88,2.55,9.7,1.91,1.93,4.85,2.52,6.98,2.68l-.14,1.99Z"/></g></g></g><g id="line"><g><rect class="cls-15" x="15.48" y="212.41" width="421.7" height="2"/><rect class="cls-15" x="441.07" y="212.41" width="6.18" height="2"/><rect class="cls-15" y="212.41" width="10.48" height="2"/></g></g></g><g id="Text"><text class="cls-3" transform="translate(96.26 238.93)"><tspan x="0" y="0">Getting fresh farm produce can be hard.</tspan><tspan class="cls-20" x="0" y="19.2">	</tspan><tspan class="cls-18" x="47.99" y="19.2">W</tspan><tspan x="63.16" y="19.2">e will ma</tspan><tspan class="cls-26" x="129.44" y="19.2">k</tspan><tspan x="138.14" y="19.2">e it easy for you!</tspan></text><text class="cls-28" transform="translate(21.77 277.2)"><tspan class="cls-19" x="0" y="0">Y</tspan><tspan x="5.86" y="0">our one s</tspan><tspan class="cls-32" x="55.81" y="0">t</tspan><tspan x="59.36" y="0">op pl</tspan><tspan class="cls-23" x="86.16" y="0">a</tspan><tspan x="92.1" y="0">t</tspan><tspan class="cls-21" x="95.71" y="0">f</tspan><tspan x="99.06" y="0">orm </tspan><tspan class="cls-2" x="124.18" y="0">t</tspan><tspan x="127.73" y="0">o g</tspan><tspan class="cls-22" x="144.85" y="0">e</tspan><tspan x="151.33" y="0">t the finest </tspan><tspan class="cls-22" x="209.17" y="0">f</tspan><tspan x="212.63" y="0">arm p</tspan><tspan class="cls-1" x="243.26" y="0">r</tspan><tspan x="246.89" y="0">odu</tspan><tspan class="cls-32" x="267.96" y="0">c</tspan><tspan class="cls-24" x="274.29" y="0">e </tspan><tspan class="cls-4" x="283.81" y="0">c</tspan><tspan x="290.13" y="0">o</tspan><tspan class="cls-22" x="297.48" y="0">nv</tspan><tspan x="309.85" y="0">enie</tspan><tspan class="cls-32" x="332.34" y="0">n</tspan><tspan x="339.21" y="0">t</tspan><tspan class="cls-22" x="342.83" y="0">l</tspan><tspan x="345.54" y="0">y and di</tspan><tspan class="cls-25" x="386.48" y="0">r</tspan><tspan x="390.14" y="0">ect</tspan><tspan class="cls-22" x="406.67" y="0">l</tspan><tspan class="cls-24" x="409.38" y="0">y</tspan></text></g></svg>