<svg xmlns="http://www.w3.org/2000/svg" xmlns:xlink="http://www.w3.org/1999/xlink" id="Capa_1" width="800" height="800" fill="#000" version="1.1" viewBox="0 0 442.171 442.171" xml:space="preserve"><path id="XMLID_300_" d="M71.661,161.245c-4.418,0-8-3.582-8-8s3.582-8,8-8h69.971l-37.897-33.074	c-3.329-2.905-3.672-7.959-0.767-11.288c2.904-3.33,7.958-3.672,11.288-0.767l51.709,45.129h2.56V73.328c0-4.418,3.582-8,8-8	s8,3.582,8,8v71.917h2.556l51.712-45.129c3.33-2.905,8.383-2.562,11.288,0.767c2.905,3.329,2.562,8.383-0.767,11.288l-37.899,33.074	h69.974c4.418,0,8,3.582,8,8s-3.582,8-8,8H71.661z M35.045,326.919c4.418,0,8-3.582,8-8V120.77l133.479-86.139l133.479,86.139	l0.002,40.649c0,4.418,3.582,8,8,8s8-3.582,8-8l-0.002-45.006c0-2.717-1.379-5.249-3.662-6.722L180.862,18.389	c-2.641-1.704-6.035-1.704-8.676,0L30.707,109.69c-2.283,1.473-3.662,4.004-3.662,6.722v202.507	C27.045,323.337,30.626,326.919,35.045,326.919z M382.204,258.536c4.418,0,8-3.582,8-8v-2.051c0-4.418-3.582-8-8-8s-8,3.582-8,8	v2.051C374.204,254.954,377.786,258.536,382.204,258.536z M307.092,280.134c-4.418,0-8,3.582-8,8v2.051c0,4.418,3.582,8,8,8	s8-3.582,8-8v-2.051C315.092,283.716,311.511,280.134,307.092,280.134z M212.023,187.111c4.418,0,8,3.582,8,8v49.307	c0,4.418-3.582,8-8,8h-70.995c-4.418,0-8-3.582-8-8v-49.307c0-4.418,3.582-8,8-8H212.023z M204.023,203.111h-54.995v33.307h54.995	V203.111z M442.171,417.058c0,4.418-3.582,8-8,8H237.188c-0.06,0.001-0.12,0.002-0.181,0.002s-0.121,0-0.181-0.002H8	c-4.418,0-8-3.582-8-8s3.582-8,8-8h7.857V355.7c0-2.841,1.507-5.47,3.959-6.905l15.999-9.362c2.496-1.46,5.585-1.46,8.081,0	l11.959,6.998l11.959-6.998c2.496-1.46,5.585-1.461,8.082,0l11.957,6.998l11.958-6.998c2.495-1.46,5.585-1.46,8.082,0l15.997,9.362	c2.453,1.436,3.959,4.063,3.959,6.905v53.358h101.159V296.41H124.042v22.009c0,4.418-3.582,8-8,8s-8-3.582-8-8V288.41	c0-4.418,3.582-8,8-8h120.965c4.418,0,8,3.582,8,8v120.649h37.317V355.7c0-2.841,1.507-5.469,3.959-6.905l15.998-9.362	c2.495-1.46,5.585-1.46,8.081,0l11.958,6.998l11.958-6.998c2.496-1.46,5.585-1.46,8.081,0l3.959,2.317v-15.539	c-5.728-1.21-11.082-3.713-15.684-7.326c-6.691,5.254-14.972,8.159-23.683,8.159c-21.184,0-38.418-17.234-38.418-38.417	c0-14.16,7.615-26.814,19.574-33.503c-0.479-2.434-0.719-4.92-0.719-7.44c0-17.773,12.025-32.787,28.547-37.144	c0.854-20.433,17.744-36.793,38.382-36.793c20.64,0,37.53,16.361,38.385,36.794c16.521,4.356,28.545,19.37,28.545,37.143	c0,2.521-0.241,5.006-0.72,7.44c11.959,6.689,19.574,19.343,19.574,33.503c0,21.184-17.234,38.417-38.417,38.417	c-8.711,0-16.993-2.905-23.684-8.159c-4.602,3.613-9.956,6.115-15.684,7.326v15.539l3.96-2.317c2.495-1.46,5.585-1.461,8.081,0	l11.957,6.998l11.959-6.998c2.496-1.46,5.585-1.461,8.082,0l15.997,9.362c2.452,1.435,3.959,4.063,3.959,6.904v53.358h7.857	C438.589,409.058,442.171,412.64,442.171,417.058z M47.855,360.288l-8-4.681l-7.999,4.681v48.771h15.999V360.288z M79.852,360.287	l-7.998-4.681l-7.999,4.681v48.771h15.997V360.287z M111.849,360.287l-7.998-4.681l-8,4.682v48.77h15.997V360.287z M314.321,360.287	l-7.999-4.681l-7.998,4.681v48.771h15.997V360.287z M346.318,360.287l-7.999-4.681l-7.999,4.681v48.771h15.997V360.287z M362.319,280.43v29.147c3.655-1.395,6.921-3.745,9.458-6.889c1.519-1.882,3.807-2.976,6.225-2.976c0,0,0.001,0,0.001,0	c2.419,0,4.708,1.095,6.226,2.977c4.284,5.31,10.646,8.355,17.457,8.355c12.361,0,22.417-10.057,22.417-22.417	c0-9.843-6.302-18.439-15.683-21.39c-2.154-0.678-3.922-2.234-4.866-4.286c-0.945-2.051-0.978-4.406-0.092-6.483	c1.186-2.78,1.787-5.736,1.787-8.785c0-11.986-9.367-21.822-21.326-22.391c-2.286-0.109-4.415-1.191-5.851-2.974	c-1.435-1.782-2.038-4.094-1.657-6.35c0.213-1.261,0.321-2.541,0.321-3.804c0-12.361-10.057-22.418-22.418-22.418	c-12.36,0-22.416,10.057-22.416,22.418c0,1.271,0.107,2.549,0.319,3.799c0.383,2.257-0.22,4.569-1.655,6.353	c-1.435,1.784-3.565,2.867-5.852,2.976c-11.958,0.569-21.326,10.405-21.326,22.391c0,3.049,0.601,6.005,1.786,8.785	c0.886,2.077,0.853,4.432-0.092,6.483c-0.944,2.051-2.712,3.608-4.866,4.286c-9.38,2.951-15.682,11.546-15.682,21.39	c0,12.361,10.057,22.417,22.418,22.417c6.81,0,13.172-3.045,17.456-8.355c1.519-1.882,3.807-2.977,6.226-2.977	c2.418,0,4.707,1.094,6.226,2.976c2.537,3.144,5.803,5.494,9.458,6.889V280.43c0-4.418,3.582-8,8-8S362.319,276.011,362.319,280.43z M378.316,360.287l-7.997-4.681l-8,4.681v48.771h15.998V360.287z M410.313,360.287l-7.998-4.681l-8,4.682v48.77h15.998V360.287z"/></svg>